<svg width="571.7561767578125px" height="87.19249267578125px" xmlns="http://www.w3.org/2000/svg" viewBox="-35.87808837890623 31.403753662109374 571.7561767578125 87.19249267578125" style="background: rgba(0, 0, 0, 0);" preserveAspectRatio="xMidYMid"><defs><linearGradient id="editing-outline-gradient" x1="0.19098300562505255" x2="0.8090169943749475" y1="-0.45105651629515353" y2="1.4510565162951536"><stop offset="0" stop-color="#a958ff"></stop><stop offset="1" stop-color="rgba(66.27450980392165%,34.50980392156864%,100%,0.19)"></stop></linearGradient><filter id="editing-outline" x="-100%" y="-100%" width="300%" height="300%"><feMorphology in="SourceGraphic" operator="dilate" radius="2" result="outline"></feMorphology><feComposite operator="out" in="outline" in2="SourceAlpha"></feComposite></filter></defs><g filter="url(#editing-outline)"><g transform="translate(46.10719537734985, 85.92562484741211)"><path d="M6.15 0L3.19 0L3.19-21.18L12.64-21.18L12.64-21.18Q17.02-21.18 18.13-17.87L18.13-17.87L18.13-17.87Q18.54-16.64 18.55-14.95L18.55-14.95L18.55-14.95Q18.56-13.26 18.16-12.11L18.16-12.11L18.16-12.11Q17.77-10.96 17.15-10.33L17.15-10.33L17.15-10.33Q16.52-9.71 15.57-9.32L15.57-9.32L20.07 0L17.04 0L12.83-8.79L6.15-8.77L6.15 0ZM6.15-18.94L6.15-11.02L12.39-11.02L12.39-11.02Q14.27-11.02 14.93-12.03L14.93-12.03L14.93-12.03Q15.60-13.04 15.60-14.88L15.60-14.88L15.60-14.88Q15.59-18.19 13.86-18.78L13.86-18.78L13.86-18.78Q13.36-18.96 12.73-18.94L12.73-18.94L6.15-18.94ZM38.04 0L24.64 0L24.64-21.18L37.87-21.18L37.87-18.98L27.58-18.98L27.58-12.01L36.67-12.01L36.67-9.81L27.58-9.81L27.58-2.20L38.04-2.20L38.04 0ZM44.15 0L41.09 0L48.98-21.18L51.58-21.18L59.49 0L56.48 0L55.05-4.13L45.60-4.13L44.15 0ZM50.36-17.81L46.30-6.23L54.38-6.23L50.36-17.81ZM66.90-18.97L66.90-2.20L72.08-2.20L72.08-2.20Q75.28-2.20 76.35-3.38L76.35-3.38L76.35-3.38Q77.43-4.57 77.43-6.77L77.43-6.77L77.43-14.22L77.43-14.22Q77.43-17.46 75.26-18.43L75.26-18.43L75.26-18.43Q74.03-18.98 72.08-18.97L72.08-18.97L66.90-18.97ZM72.38 0L63.94 0L63.94-21.18L72.35-21.18L72.35-21.18Q78.43-21.18 79.94-16.88L79.94-16.88L79.94-16.88Q80.38-15.62 80.38-14.05L80.38-14.05L80.38-7.06L80.38-7.06Q80.38-3.59 78.38-1.79L78.38-1.79L78.38-1.79Q76.38 0 72.38 0L72.38 0ZM94.86 0L91.80 0L99.70-21.18L102.29-21.18L110.20 0L107.20 0L105.76-4.13L96.31-4.13L94.86 0ZM101.07-17.81L97.02-6.23L105.09-6.23L101.07-17.81ZM127.10 0L114.65 0L114.65-21.18L117.60-21.18L117.60-2.27L127.10-2.27L127.10 0ZM143.88 0L131.43 0L131.43-21.18L134.37-21.18L134.37-2.27L143.88-2.27L143.88 0ZM156.83 0L153.76 0L161.66-21.18L164.25-21.18L172.16 0L169.16 0L167.72-4.13L158.28-4.13L156.83 0ZM163.04-17.81L158.98-6.23L167.05-6.23L163.04-17.81ZM184.94 0L176.62 0L176.62-21.18L184.29-21.18L184.29-21.18Q189.21-21.18 190.53-19.00L190.53-19.00L190.53-19.00Q191.32-17.70 191.32-15.37L191.32-15.37L191.32-15.37Q191.25-12.22 188.66-11.32L188.66-11.32L188.66-11.32Q190.47-10.91 191.41-9.51L191.41-9.51L191.41-9.51Q192.35-8.10 192.35-6.02L192.35-6.02L192.35-6.02Q192.35-2.87 190.58-1.44L190.58-1.44L190.58-1.44Q188.80 0 184.94 0L184.94 0ZM179.58-10.20L179.58-2.18L184.72-2.18L184.72-2.18Q187.21-2.18 188.33-2.99L188.33-2.99L188.33-2.99Q189.45-3.79 189.45-6.34L189.45-6.34L189.45-6.34Q189.45-10.20 185.43-10.20L185.43-10.20L179.58-10.20ZM179.58-18.97L179.58-12.20L185.01-12.20L185.01-12.20Q186.90-12.20 187.64-12.99L187.64-12.99L187.64-12.99Q188.38-13.78 188.38-15.15L188.38-15.15L188.38-15.15Q188.38-16.51 188.18-17.20L188.18-17.20L188.18-17.20Q187.98-17.89 187.43-18.30L187.43-18.30L187.43-18.30Q186.88-18.71 186.07-18.84L186.07-18.84L186.07-18.84Q185.26-18.97 183.84-18.97L183.84-18.97L179.58-18.97ZM205.67-2.05L205.67-2.05L205.67-2.05Q208.56-2.05 209.88-2.98L209.88-2.98L209.88-2.98Q211.20-3.91 211.20-6.67L211.20-6.67L211.20-14.33L211.20-14.33Q211.20-17.08 209.88-18.11L209.88-18.11L209.88-18.11Q208.55-19.13 205.68-19.13L205.68-19.13L205.68-19.13Q201.23-19.13 200.27-16.67L200.27-16.67L200.27-16.67Q199.91-15.73 199.91-14.33L199.91-14.33L199.91-6.67L199.91-6.67Q199.91-3.93 201.34-2.99L201.34-2.99L201.34-2.99Q202.78-2.05 205.67-2.05ZM200.24-0.64L200.24-0.64L200.24-0.64Q198.33-1.61 197.64-3.24L197.64-3.24L197.64-3.24Q196.95-4.86 196.95-7.12L196.95-7.12L196.95-13.78L196.95-13.78Q196.95-18.34 199.53-20.10L199.53-20.10L199.53-20.10Q201.61-21.50 205.68-21.50L205.68-21.50L205.68-21.50Q212.89-21.50 213.93-16.14L213.93-16.14L213.93-16.14Q214.15-15.01 214.15-13.59L214.15-13.59L214.15-7.32L214.15-7.32Q214.15-2.90 211.61-1.11L211.61-1.11L211.61-1.11Q209.58 0.32 205.87 0.32L205.87 0.32L205.87 0.32Q202.16 0.32 200.24-0.64ZM228.24 0.32L228.24 0.32L228.24 0.32Q222.58 0.32 220.80-2.67L220.80-2.67L220.80-2.67Q219.80-4.34 219.80-6.93L219.80-6.93L219.80-21.18L222.76-21.18L222.76-6.62L222.76-6.62Q222.76-2.64 226.57-2.14L226.57-2.14L226.57-2.14Q227.31-2.05 228.41-2.05L228.41-2.05L228.41-2.05Q230.67-2.05 232.09-2.93L232.09-2.93L232.09-2.93Q233.51-3.81 233.51-6.62L233.51-6.62L233.51-21.18L236.47-21.18L236.47-6.93L236.47-6.93Q236.47-2.81 234.04-1.08L234.04-1.08L234.04-1.08Q232.05 0.32 228.24 0.32ZM249.68 0L246.74 0L246.74-18.76L240.63-18.76L240.63-21.18L255.81-21.18L255.81-18.76L249.68-18.76L249.68 0ZM274.82 0L271.88 0L271.88-18.76L265.77-18.76L265.77-21.18L280.94-21.18L280.94-18.76L274.82-18.76L274.82 0ZM288.22 0L285.28 0L285.28-21.18L288.22-21.18L288.22-11.82L298.51-11.82L298.51-21.18L301.45-21.18L301.45 0L298.51 0L298.51-9.65L288.22-9.65L288.22 0ZM321.15 0L307.75 0L307.75-21.18L320.98-21.18L320.98-18.98L310.69-18.98L310.69-12.01L319.78-12.01L319.78-9.81L310.69-9.81L310.69-2.20L321.15-2.20L321.15 0ZM341.95 0L333.63 0L333.63-21.18L341.31-21.18L341.31-21.18Q346.23-21.18 347.55-19.00L347.55-19.00L347.55-19.00Q348.34-17.70 348.34-15.37L348.34-15.37L348.34-15.37Q348.27-12.22 345.67-11.32L345.67-11.32L345.67-11.32Q347.49-10.91 348.43-9.51L348.43-9.51L348.43-9.51Q349.37-8.10 349.37-6.02L349.37-6.02L349.37-6.02Q349.37-2.87 347.59-1.44L347.59-1.44L347.59-1.44Q345.82 0 341.95 0L341.95 0ZM336.59-10.20L336.59-2.18L341.73-2.18L341.73-2.18Q344.22-2.18 345.34-2.99L345.34-2.99L345.34-2.99Q346.46-3.79 346.46-6.34L346.46-6.34L346.46-6.34Q346.46-10.20 342.45-10.20L342.45-10.20L336.59-10.20ZM336.59-18.97L336.59-12.20L342.03-12.20L342.03-12.20Q343.92-12.20 344.66-12.99L344.66-12.99L344.66-12.99Q345.40-13.78 345.40-15.15L345.40-15.15L345.40-15.15Q345.40-16.51 345.20-17.20L345.20-17.20L345.20-17.20Q345-17.89 344.45-18.30L344.45-18.30L344.45-18.30Q343.90-18.71 343.09-18.84L343.09-18.84L343.09-18.84Q342.28-18.97 340.85-18.97L340.85-18.97L336.59-18.97ZM355.56 0L352.50 0L360.40-21.18L362.99-21.18L370.90 0L367.90 0L366.46-4.13L357.01-4.13L355.56 0ZM361.77-17.81L357.71-6.23L365.79-6.23L361.77-17.81ZM387.80 0L375.35 0L375.35-21.18L378.30-21.18L378.30-2.27L387.80-2.27L387.80 0ZM404.58 0L392.12 0L392.12-21.18L395.07-21.18L395.07-2.27L404.58-2.27L404.58 0Z" fill="url(#editing-outline-gradient)"></path></g></g><style>text {
  font-size: 64px;
  font-family: Arial Black;
  dominant-baseline: central;
  text-anchor: middle;
}</style></svg>