<svg width="570.9487548828125px" height="99.19882812499999px" xmlns="http://www.w3.org/2000/svg" viewBox="-35.47437744140626 25.400585937500004 570.9487548828125 99.19882812499999" style="background: rgba(0, 0, 0, 0);" preserveAspectRatio="xMidYMid"><defs><linearGradient id="editing-outline-gradient" x1="-0.1691306063588578" x2="1.1691306063588578" y1="1.2431448254773945" y2="-0.24314482547739458"><stop offset="0" stop-color="rgba(78.43137254901966%,34.50980392156863%,100%,0.438)"></stop><stop offset="1" stop-color="rgba(78.43137254901966%,34.50980392156863%,100%,0.698)"></stop></linearGradient><filter id="editing-outline" x="-100%" y="-100%" width="300%" height="300%"><feMorphology in="SourceGraphic" operator="dilate" radius="2" result="outline"></feMorphology><feComposite operator="out" in="outline" in2="SourceAlpha"></feComposite></filter></defs><g filter="url(#editing-outline)"><g transform="translate(48.60718870162964, 87.96218681335449)"><path d="M12.34 0L8.81 0L8.81-22.52L1.48-22.52L1.48-25.42L19.69-25.42L19.69-22.52L12.34-22.52L12.34 0ZM28.42 0L24.89 0L24.89-25.42L28.42-25.42L28.42-14.19L40.76-14.19L40.76-25.42L44.30-25.42L44.30 0L40.76 0L40.76-11.58L28.42-11.58L28.42 0ZM67.94 0L51.86 0L51.86-25.42L67.73-25.42L67.73-22.78L55.39-22.78L55.39-14.41L66.29-14.41L66.29-11.78L55.39-11.78L55.39-2.64L67.94-2.64L67.94 0ZM97.86 0L82.92 0L82.92-25.42L86.45-25.42L86.45-2.72L97.86-2.72L97.86 0ZM115.77 0L102.55 0L102.55-2.64L107.40-2.64L107.40-22.80L102.55-22.80L102.55-25.42L115.77-25.42L115.77-22.80L110.94-22.80L110.94-2.64L115.77-2.64L115.77 0ZM132.93 0L122.94 0L122.94-25.42L132.15-25.42L132.15-25.42Q138.06-25.42 139.64-22.80L139.64-22.80L139.64-22.80Q140.59-21.23 140.59-18.44L140.59-18.44L140.59-18.44Q140.50-14.66 137.39-13.59L137.39-13.59L137.39-13.59Q139.57-13.10 140.70-11.41L140.70-11.41L140.70-11.41Q141.82-9.72 141.82-7.22L141.82-7.22L141.82-7.22Q141.82-3.45 139.69-1.72L139.69-1.72L139.69-1.72Q137.57 0 132.93 0L132.93 0ZM126.49-12.23L126.49-2.62L132.66-2.62L132.66-2.62Q135.65-2.62 137.00-3.59L137.00-3.59L137.00-3.59Q138.34-4.55 138.34-7.61L138.34-7.61L138.34-7.61Q138.34-12.23 133.52-12.23L133.52-12.23L126.49-12.23ZM126.49-22.76L126.49-14.64L133.01-14.64L133.01-14.64Q135.28-14.64 136.17-15.59L136.17-15.59L136.17-15.59Q137.06-16.54 137.06-18.18L137.06-18.18L137.06-18.18Q137.06-19.81 136.82-20.64L136.82-20.64L136.82-20.64Q136.58-21.46 135.92-21.96L135.92-21.96L135.92-21.96Q135.26-22.45 134.29-22.61L134.29-22.61L134.29-22.61Q133.31-22.76 131.61-22.76L131.61-22.76L126.49-22.76ZM151.45 0L147.90 0L147.90-25.42L159.24-25.42L159.24-25.42Q164.50-25.42 165.83-21.45L165.83-21.45L165.83-21.45Q166.32-19.97 166.33-17.94L166.33-17.94L166.33-17.94Q166.34-15.91 165.87-14.53L165.87-14.53L165.87-14.53Q165.39-13.15 164.65-12.40L164.65-12.40L164.65-12.40Q163.90-11.65 162.76-11.18L162.76-11.18L168.15 0L164.51 0L159.47-10.55L151.45-10.53L151.45 0ZM151.45-22.73L151.45-13.22L158.94-13.22L158.94-13.22Q161.19-13.22 161.99-14.43L161.99-14.43L161.99-14.43Q162.79-15.64 162.79-17.86L162.79-17.86L162.79-17.86Q162.77-21.83 160.70-22.54L160.70-22.54L160.70-22.54Q160.10-22.75 159.35-22.73L159.35-22.73L151.45-22.73ZM174.99 0L171.32 0L180.79-25.42L183.90-25.42L193.39 0L189.79 0L188.07-4.96L176.73-4.96L174.99 0ZM182.44-21.38L177.57-7.47L187.26-7.47L182.44-21.38ZM202.29 0L198.74 0L198.74-25.42L210.08-25.42L210.08-25.42Q215.33-25.42 216.67-21.45L216.67-21.45L216.67-21.45Q217.16-19.97 217.17-17.94L217.17-17.94L217.17-17.94Q217.18-15.91 216.70-14.53L216.70-14.53L216.70-14.53Q216.23-13.15 215.48-12.40L215.48-12.40L215.48-12.40Q214.73-11.65 213.59-11.18L213.59-11.18L218.99 0L215.35 0L210.30-10.55L202.29-10.53L202.29 0ZM202.29-22.73L202.29-13.22L209.78-13.22L209.78-13.22Q212.03-13.22 212.83-14.43L212.83-14.43L212.83-14.43Q213.63-15.64 213.63-17.86L213.63-17.86L213.63-17.86Q213.61-21.83 211.54-22.54L211.54-22.54L211.54-22.54Q210.94-22.75 210.18-22.73L210.18-22.73L202.29-22.73ZM233.95 0L230.41 0L230.41-9.98L221.41-25.42L225.16-25.42L232.19-13.08L239.26-25.42L242.89-25.42L233.95-9.98L233.95 0ZM269.30 0L256.08 0L256.08-2.64L260.93-2.64L260.93-22.80L256.08-22.80L256.08-25.42L269.30-25.42L269.30-22.80L264.46-22.80L264.46-2.64L269.30-2.64L269.30 0ZM293.10-7.14L293.10-7.14L293.10-7.14Q293.10 0.39 284.78 0.39L284.78 0.39L284.78 0.39Q279.26 0.39 275.17-1.99L275.17-1.99L276.42-4.69L276.42-4.69Q278.00-3.76 280.26-3.11L280.26-3.11L280.26-3.11Q282.52-2.46 284.65-2.46L284.65-2.46L284.65-2.46Q286.79-2.46 287.88-3.01L287.88-3.01L287.88-3.01Q289.83-3.99 289.83-7.01L289.83-7.01L289.83-7.01Q289.83-8.26 289.71-8.68L289.71-8.68L289.71-8.68Q289.30-10.09 286.73-10.90L286.73-10.90L280.60-12.94L280.60-12.94Q277.63-13.90 276.64-15.39L276.64-15.39L276.64-15.39Q275.64-16.88 275.64-19.20L275.64-19.20L275.64-19.20Q275.66-22.54 278.09-24.29L278.09-24.29L278.09-24.29Q280.18-25.79 284.17-25.80L284.17-25.80L284.17-25.80Q289.85-25.80 292.69-24.03L292.69-24.03L291.83-21.27L291.83-21.27Q288.70-22.96 284.78-22.96L284.78-22.96L284.78-22.96Q282.06-22.96 280.63-22.25L280.63-22.25L280.63-22.25Q279.21-21.55 279.11-19.99L279.11-19.99L279.11-19.99Q279.07-19.49 279.07-19.11L279.07-19.11L279.07-19.11Q279.07-17.84 279.61-17.16L279.61-17.16L279.61-17.16Q280.14-16.47 281.69-15.94L281.69-15.94L288.09-13.78L288.09-13.78Q290.72-12.88 291.91-11.43L291.91-11.43L291.91-11.43Q293.10-9.98 293.10-7.14ZM318.30-2.46L318.30-2.46L318.30-2.46Q321.77-2.46 323.35-3.58L323.35-3.58L323.35-3.58Q324.93-4.69 324.93-8.00L324.93-8.00L324.93-17.19L324.93-17.19Q324.93-20.50 323.34-21.73L323.34-21.73L323.34-21.73Q321.75-22.96 318.30-22.96L318.30-22.96L318.30-22.96Q312.96-22.96 311.82-20.00L311.82-20.00L311.82-20.00Q311.38-18.88 311.38-17.19L311.38-17.19L311.38-8.00L311.38-8.00Q311.38-4.71 313.10-3.59L313.10-3.59L313.10-3.59Q314.82-2.46 318.30-2.46ZM311.78-0.77L311.78-0.77L311.78-0.77Q309.48-1.93 308.65-3.88L308.65-3.88L308.65-3.88Q307.83-5.84 307.83-8.54L307.83-8.54L307.83-16.54L307.83-16.54Q307.83-22.01 310.92-24.12L310.92-24.12L310.92-24.12Q313.42-25.80 318.30-25.80L318.30-25.80L318.30-25.80Q326.95-25.80 328.20-19.37L328.20-19.37L328.20-19.37Q328.46-18.02 328.46-16.31L328.46-16.31L328.46-8.79L328.46-8.79Q328.46-3.48 325.42-1.34L325.42-1.34L325.42-1.34Q322.98 0.39 318.53 0.39L318.53 0.39L318.53 0.39Q314.09 0.39 311.78-0.77ZM339.12 0L335.57 0L335.57-25.42L345.73-25.42L345.73-25.42Q352.79-25.42 352.79-17.42L352.79-17.42L352.79-17.42Q352.79-13.06 350.96-11.18L350.96-11.18L350.96-11.18Q349.12-9.30 345.67-9.30L345.67-9.30L339.12-9.30L339.12 0ZM339.12-22.73L339.12-11.99L345.74-11.99L345.74-11.99Q348.86-11.99 349.17-15.61L349.17-15.61L349.17-15.61Q349.24-16.28 349.24-17.19L349.24-17.19L349.24-17.19Q349.24-20.27 348.41-21.50L348.41-21.50L348.41-21.50Q347.57-22.73 345.83-22.73L345.83-22.73L339.12-22.73ZM374.96 0L358.88 0L358.88-25.42L374.75-25.42L374.75-22.78L362.41-22.78L362.41-14.41L373.31-14.41L373.31-11.78L362.41-11.78L362.41-2.64L374.96-2.64L374.96 0ZM384.05 0L380.94 0L380.94-25.42L383.63-25.42L398.18-5.10L398.18-25.42L401.29-25.42L401.29 0L398.14 0L384.05-19.41L384.05 0Z" fill="url(#editing-outline-gradient)"></path></g></g><style>text {
  font-size: 64px;
  font-family: Arial Black;
  dominant-baseline: central;
  text-anchor: middle;
}</style></svg>