<svg width="529.2775390625px" height="87.1923828125px" xmlns="http://www.w3.org/2000/svg" viewBox="-14.638769531249977 31.40380859375 529.2775390625 87.1923828125" style="background: rgba(0, 0, 0, 0);" preserveAspectRatio="xMidYMid"><defs><linearGradient id="editing-outline-gradient" x1="0.19098300562505255" x2="0.8090169943749475" y1="-0.45105651629515353" y2="1.4510565162951536"><stop offset="0" stop-color="#a958ff"></stop><stop offset="1" stop-color="rgba(66.27450980392165%,34.50980392156864%,100%,0.19)"></stop></linearGradient><filter id="editing-outline" x="-100%" y="-100%" width="300%" height="300%"><feMorphology in="SourceGraphic" operator="dilate" radius="2" result="outline"></feMorphology><feComposite operator="out" in="outline" in2="SourceAlpha"></feComposite></filter></defs><g filter="url(#editing-outline)"><g transform="translate(62.20938229560852, 85.92562484741211)"><path d="M11.54 0.32L11.54 0.32L11.54 0.32Q5.63 0.32 3.79-2.61L3.79-2.61L3.79-2.61Q2.72-4.32 2.72-7.12L2.72-7.12L2.72-13.77L2.72-13.77Q2.72-18.30 5.36-20.08L5.36-20.08L5.36-20.08Q7.46-21.50 11.25-21.50L11.25-21.50L11.25-21.50Q15.04-21.50 16.81-20.65L16.81-20.65L16.81-20.65Q18.57-19.79 19.13-18.36L19.13-18.36L19.13-18.36Q19.69-16.93 19.69-14.88L19.69-14.88L16.99-14.66L16.99-14.66Q16.99-16.73 16.59-17.42L16.59-17.42L16.59-17.42Q16.19-18.12 15.81-18.41L15.81-18.41L15.81-18.41Q15.44-18.71 14.55-18.92L14.55-18.92L14.55-18.92Q13.67-19.13 11.87-19.13L11.87-19.13L11.87-19.13Q10.08-19.13 9.05-18.90L9.05-18.90L9.05-18.90Q8.03-18.68 7.24-18.13L7.24-18.13L7.24-18.13Q5.68-17.07 5.68-14.31L5.68-14.31L5.68-6.67L5.68-6.67Q5.68-3.91 7.16-2.98L7.16-2.98L7.16-2.98Q8.64-2.05 11.52-2.05L11.52-2.05L11.52-2.05Q14.40-2.05 15.68-2.97L15.68-2.97L15.68-2.97Q16.96-3.88 16.96-6.67L16.96-6.67L16.96-8.61L11.94-8.61L11.94-10.77L19.92-10.77L19.92 0L18.31 0L17.94-3.60L17.94-3.60Q17.67-1.77 16.11-0.73L16.11-0.73L16.11-0.73Q14.55 0.32 11.54 0.32ZM39.39 0L25.99 0L25.99-21.18L39.21-21.18L39.21-18.98L28.93-18.98L28.93-12.01L38.01-12.01L38.01-9.81L28.93-9.81L28.93-2.20L39.39-2.20L39.39 0ZM51.46 0L48.52 0L48.52-18.76L42.41-18.76L42.41-21.18L57.58-21.18L57.58-18.76L51.46-18.76L51.46 0ZM77.46 0L74.52 0L74.52-8.32L67.02-21.18L70.14-21.18L76.00-10.90L81.88-21.18L84.92-21.18L77.46-8.32L77.46 0ZM97.07-2.05L97.07-2.05L97.07-2.05Q99.96-2.05 101.28-2.98L101.28-2.98L101.28-2.98Q102.60-3.91 102.60-6.67L102.60-6.67L102.60-14.33L102.60-14.33Q102.60-17.08 101.27-18.11L101.27-18.11L101.27-18.11Q99.95-19.13 97.08-19.13L97.08-19.13L97.08-19.13Q92.62-19.13 91.67-16.67L91.67-16.67L91.67-16.67Q91.30-15.73 91.30-14.33L91.30-14.33L91.30-6.67L91.30-6.67Q91.30-3.93 92.74-2.99L92.74-2.99L92.74-2.99Q94.17-2.05 97.07-2.05ZM91.64-0.64L91.64-0.64L91.64-0.64Q89.72-1.61 89.03-3.24L89.03-3.24L89.03-3.24Q88.34-4.86 88.34-7.12L88.34-7.12L88.34-13.78L88.34-13.78Q88.34-18.34 90.92-20.10L90.92-20.10L90.92-20.10Q93.00-21.50 97.08-21.50L97.08-21.50L97.08-21.50Q104.28-21.50 105.32-16.14L105.32-16.14L105.32-16.14Q105.54-15.01 105.54-13.59L105.54-13.59L105.54-7.32L105.54-7.32Q105.54-2.90 103.01-1.11L103.01-1.11L103.01-1.11Q100.97 0.32 97.27 0.32L97.27 0.32L97.27 0.32Q93.56 0.32 91.64-0.64ZM119.63 0.32L119.63 0.32L119.63 0.32Q113.98 0.32 112.19-2.67L112.19-2.67L112.19-2.67Q111.20-4.34 111.20-6.93L111.20-6.93L111.20-21.18L114.16-21.18L114.16-6.62L114.16-6.62Q114.16-2.64 117.96-2.14L117.96-2.14L117.96-2.14Q118.71-2.05 119.81-2.05L119.81-2.05L119.81-2.05Q122.07-2.05 123.49-2.93L123.49-2.93L123.49-2.93Q124.91-3.81 124.91-6.62L124.91-6.62L124.91-21.18L127.87-21.18L127.87-6.93L127.87-6.93Q127.87-2.81 125.43-1.08L125.43-1.08L125.43-1.08Q123.44 0.32 119.63 0.32ZM136.95 0L133.99 0L133.99-21.18L143.44-21.18L143.44-21.18Q147.82-21.18 148.93-17.87L148.93-17.87L148.93-17.87Q149.34-16.64 149.35-14.95L149.35-14.95L149.35-14.95Q149.36-13.26 148.96-12.11L148.96-12.11L148.96-12.11Q148.56-10.96 147.94-10.33L147.94-10.33L147.94-10.33Q147.32-9.71 146.37-9.32L146.37-9.32L150.86 0L147.83 0L143.63-8.79L136.95-8.77L136.95 0ZM136.95-18.94L136.95-11.02L143.19-11.02L143.19-11.02Q145.06-11.02 145.73-12.03L145.73-12.03L145.73-12.03Q146.40-13.04 146.40-14.88L146.40-14.88L146.40-14.88Q146.38-18.19 144.65-18.78L144.65-18.78L144.65-18.78Q144.16-18.96 143.53-18.94L143.53-18.94L136.95-18.94ZM170.02 0L167.08 0L167.08-18.76L160.97-18.76L160.97-21.18L176.15-21.18L176.15-18.76L170.02-18.76L170.02 0ZM191.18 0L180.16 0L180.16-2.20L184.20-2.20L184.20-19.00L180.16-19.00L180.16-21.18L191.18-21.18L191.18-19.00L187.15-19.00L187.15-2.20L191.18-2.20L191.18 0ZM199.75-0.64L199.75-0.64L199.75-0.64Q197.89-1.60 197.26-3.22L197.26-3.22L197.26-3.22Q196.63-4.83 196.63-7.12L196.63-7.12L196.63-13.77L196.63-13.77Q196.63-18.40 199.03-20.08L199.03-20.08L199.03-20.08Q201.06-21.50 204.95-21.50L204.95-21.50L204.95-21.50Q208.84-21.50 210.60-20.43L210.60-20.43L210.60-20.43Q212.36-19.35 212.80-17.05L212.80-17.05L212.80-17.05Q213.00-16.03 213.00-14.60L213.00-14.60L210.21-14.36L210.21-14.36Q210.21-16.49 209.84-17.25L209.84-17.25L209.84-17.25Q209.47-18.00 209.11-18.33L209.11-18.33L209.11-18.33Q208.75-18.65 207.93-18.89L207.93-18.89L207.93-18.89Q207.11-19.13 205.37-19.13L205.37-19.13L205.37-19.13Q203.63-19.13 202.63-18.90L202.63-18.90L202.63-18.90Q201.64-18.68 200.93-18.13L200.93-18.13L200.93-18.13Q199.58-17.09 199.58-14.31L199.58-14.31L199.58-6.67L199.58-6.67Q199.58-3.91 200.95-2.98L200.95-2.98L200.95-2.98Q202.31-2.05 205.29-2.05L205.29-2.05L205.29-2.05Q208.27-2.05 209.09-2.75L209.09-2.75L209.09-2.75Q209.91-3.46 210.10-4.80L210.10-4.80L210.10-4.80Q210.21-5.54 210.21-6.56L210.21-6.56L213.00-6.56L213.00-6.56Q213.00-3.37 212.08-2.08L212.08-2.08L212.08-2.08Q210.38 0.32 205.62 0.32L205.62 0.32L205.62 0.32Q201.62 0.32 199.75-0.64ZM221.43 0L218.48 0L218.48-21.18L221.43-21.18L221.43-9.62L221.43-9.62Q223.78-12.48 227.06-16.19L227.06-16.19L227.06-16.19Q230.33-19.89 231.45-21.18L231.45-21.18L234.64-21.18L226.68-11.69L235.06 0L231.80 0L224.62-10.11L221.43-6.86L221.43 0ZM252.66 0L239.25 0L239.25-21.18L252.48-21.18L252.48-18.98L242.20-18.98L242.20-12.01L251.28-12.01L251.28-9.81L242.20-9.81L242.20-2.20L252.66-2.20L252.66 0ZM264.73 0L261.78 0L261.78-18.76L255.67-18.76L255.67-21.18L270.85-21.18L270.85-18.76L264.73-18.76L264.73 0ZM289.13-5.95L289.13-5.95L289.13-5.95Q289.13 0.32 282.20 0.32L282.20 0.32L282.20 0.32Q277.60 0.32 274.19-1.66L274.19-1.66L275.23-3.91L275.23-3.91Q276.55-3.13 278.43-2.59L278.43-2.59L278.43-2.59Q280.31-2.05 282.09-2.05L282.09-2.05L282.09-2.05Q283.87-2.05 284.78-2.50L284.78-2.50L284.78-2.50Q286.41-3.33 286.41-5.84L286.41-5.84L286.41-5.84Q286.41-6.88 286.30-7.24L286.30-7.24L286.30-7.24Q285.97-8.41 283.83-9.08L283.83-9.08L278.72-10.78L278.72-10.78Q276.24-11.59 275.41-12.82L275.41-12.82L275.41-12.82Q274.58-14.06 274.58-16.00L274.58-16.00L274.58-16.00Q274.60-18.78 276.62-20.24L276.62-20.24L276.62-20.24Q278.36-21.49 281.69-21.50L281.69-21.50L281.69-21.50Q286.42-21.50 288.79-20.02L288.79-20.02L288.08-17.72L288.08-17.72Q285.47-19.13 282.20-19.13L282.20-19.13L282.20-19.13Q279.93-19.13 278.75-18.54L278.75-18.54L278.75-18.54Q277.56-17.96 277.47-16.66L277.47-16.66L277.47-16.66Q277.44-16.25 277.44-15.92L277.44-15.92L277.44-15.92Q277.44-14.87 277.89-14.30L277.89-14.30L277.89-14.30Q278.33-13.73 279.62-13.29L279.62-13.29L284.96-11.48L284.96-11.48Q287.15-10.74 288.14-9.53L288.14-9.53L288.14-9.53Q289.13-8.32 289.13-5.95ZM304.47 0L301.88 0L301.88-21.18L304.12-21.18L316.25-4.25L316.25-21.18L318.84-21.18L318.84 0L316.22 0L304.47-16.17L304.47 0ZM333.48-2.05L333.48-2.05L333.48-2.05Q336.37-2.05 337.69-2.98L337.69-2.98L337.69-2.98Q339.01-3.91 339.01-6.67L339.01-6.67L339.01-14.33L339.01-14.33Q339.01-17.08 337.68-18.11L337.68-18.11L337.68-18.11Q336.36-19.13 333.49-19.13L333.49-19.13L333.49-19.13Q329.03-19.13 328.08-16.67L328.08-16.67L328.08-16.67Q327.71-15.73 327.71-14.33L327.71-14.33L327.71-6.67L327.71-6.67Q327.71-3.93 329.15-2.99L329.15-2.99L329.15-2.99Q330.59-2.05 333.48-2.05ZM328.05-0.64L328.05-0.64L328.05-0.64Q326.13-1.61 325.44-3.24L325.44-3.24L325.44-3.24Q324.76-4.86 324.76-7.12L324.76-7.12L324.76-13.78L324.76-13.78Q324.76-18.34 327.33-20.10L327.33-20.10L327.33-20.10Q329.41-21.50 333.49-21.50L333.49-21.50L333.49-21.50Q340.69-21.50 341.73-16.14L341.73-16.14L341.73-16.14Q341.95-15.01 341.95-13.59L341.95-13.59L341.95-7.32L341.95-7.32Q341.95-2.90 339.42-1.11L339.42-1.11L339.42-1.11Q337.38 0.32 333.68 0.32L333.68 0.32L333.68 0.32Q329.97 0.32 328.05-0.64ZM354.35 0L352.12 0L346.11-21.18L348.81-21.18L353.31-5.07L357.92-21.18L361.07-21.18L365.89-5.07L370.15-21.18L372.83-21.18L367.06 0L364.83 0L359.66-18.05L354.35 0Z" fill="url(#editing-outline-gradient)"></path></g></g><style>text {
  font-size: 64px;
  font-family: Arial Black;
  dominant-baseline: central;
  text-anchor: middle;
}</style></svg>